<svg xmlns="http://www.w3.org/2000/svg" xmlns:xlink="http://www.w3.org/1999/xlink" width="1920" zoomAndPan="magnify" viewBox="0 0 1440 809.999993" height="1080" preserveAspectRatio="xMidYMid meet" version="1.0"><defs><g/><clipPath id="f8dc26aa59"><path d="M 63 149.246094 L 533 149.246094 L 533 594 L 63 594 Z M 63 149.246094 " clip-rule="nonzero"/></clipPath><clipPath id="61e5fb6f2d"><path d="M 25.351562 349 L 321 349 L 321 630 L 25.351562 630 Z M 25.351562 349 " clip-rule="nonzero"/></clipPath></defs><g clip-path="url(#f8dc26aa59)"><path fill="#00b37e" d="M 531.976562 152.496094 L 407.992188 591.78125 C 407.363281 593.773438 404.839844 594.375 403.367188 592.976562 L 320.363281 514.214844 L 382.566406 294.074219 C 383.195312 292.078125 381.304688 290.285156 379.203125 290.882812 L 147.203125 349.90625 L 64.613281 271.539062 C 63.144531 270.144531 63.773438 267.75 65.875 267.152344 L 528.617188 149.304688 C 530.71875 148.90625 532.609375 150.703125 531.976562 152.496094 Z M 531.976562 152.496094 " fill-opacity="0.498" fill-rule="nonzero"/></g><g clip-path="url(#61e5fb6f2d)"><path fill="#00b37e" d="M 320.355469 514.210938 L 288.414062 627.867188 C 287.785156 629.863281 285.261719 630.460938 283.792969 629.066406 L 26.152344 384.796875 C 24.683594 383.402344 25.3125 381.007812 27.414062 380.410156 L 147.199219 349.902344 Z M 320.355469 514.210938 " fill-opacity="0.498" fill-rule="nonzero"/></g><path fill="#00b37e" d="M 382.554688 294.070312 L 320.351562 514.210938 L 147.191406 349.902344 L 379.191406 290.878906 C 381.292969 290.28125 383.183594 292.074219 382.554688 294.070312 Z M 382.554688 294.070312 " fill-opacity="1" fill-rule="nonzero"/><path stroke-linecap="butt" transform="matrix(0.987121, 0, 0, 0.987121, 638.12599, 396.862207)" fill="none" stroke-linejoin="miter" d="M 55.954012 209.00138 C 54.331554 209.00138 52.986101 208.486942 51.917653 207.454109 C 50.88482 206.385661 50.370382 205.119353 50.370382 203.655183 L 50.370382 34.765219 C 50.370382 32.984472 50.924392 31.500517 52.03637 30.313352 C 53.183962 29.082659 54.648131 28.46929 56.432835 28.46929 L 128.964623 28.46929 C 154.27101 28.46929 173.435801 32.48982 186.466909 40.530881 C 199.537589 48.528411 206.07095 60.411927 206.07095 76.173513 C 206.07095 84.764626 203.71245 92.034029 199.003365 97.973809 C 194.329894 103.874016 186.071187 109.576362 174.231201 115.080847 C 173.914624 115.239136 173.756335 115.535927 173.756335 115.971221 C 173.756335 116.366942 173.914624 116.647904 174.231201 116.806193 C 187.377068 121.637952 196.704223 127.379871 202.208709 134.031948 C 207.713194 140.684026 210.467416 149.298883 210.467416 159.87256 C 210.467416 176.544306 204.092343 188.902687 191.33824 196.93979 C 178.627667 204.98085 159.142342 209.00138 132.886222 209.00138 Z M 132.886222 99.042256 C 138.548997 99.042256 143.083965 97.498943 146.487169 94.408358 C 149.894331 91.321731 151.595933 87.340773 151.595933 82.469441 C 151.595933 77.281533 149.637112 73.063142 145.715512 69.814269 C 141.833485 66.569353 136.98194 64.942938 131.160877 64.942938 L 111.200686 64.942938 C 109.103362 64.942938 107.639193 65.318873 106.804221 66.074701 C 106.012778 66.787 105.617056 68.033522 105.617056 69.814269 L 105.617056 93.636701 C 105.617056 95.615309 105.933633 97.024077 106.566788 97.855092 C 107.243471 98.646535 108.292133 99.042256 109.716731 99.042256 Z M 131.635743 172.527733 C 138.291778 172.527733 143.519258 170.663885 147.318184 166.940146 C 151.16064 163.180792 153.083846 158.784326 153.083846 153.754706 C 153.083846 148.725087 151.200212 144.58584 147.436901 141.336967 C 143.717119 138.092051 138.865574 136.465635 132.886222 136.465635 L 111.200686 136.465635 C 109.103362 136.465635 107.639193 136.8851 106.804221 137.716115 C 106.012778 138.507558 105.617056 139.793653 105.617056 141.5744 L 105.617056 167.11822 C 105.617056 169.100785 105.933633 170.505596 106.566788 171.336611 C 107.243471 172.128054 108.292133 172.527733 109.716731 172.527733 Z M 230.178302 34.05292 C 230.178302 32.272174 230.574023 30.906935 231.369424 29.957203 C 232.200439 28.963942 233.348031 28.46929 234.8122 28.46929 L 281.02851 28.46929 C 283.960806 28.46929 285.424976 30.17485 285.424976 33.578054 L 285.424976 165.693623 C 285.424976 166.999504 285.622837 167.893834 286.018558 168.3687 C 286.414279 168.843566 287.189894 169.080999 288.337486 169.080999 L 361.581572 169.080999 C 365.305311 169.080999 367.165202 170.624312 367.165202 173.714897 L 367.165202 203.655183 C 367.165202 205.277641 366.630978 206.583522 365.56253 207.572826 C 364.533654 208.526514 363.045741 209.00138 361.106706 209.00138 L 236.774979 209.00138 C 234.317548 209.00138 232.59616 208.526514 231.606856 207.572826 C 230.653168 206.583522 230.178302 205.040208 230.178302 202.938927 Z M 469.142623 211.435067 C 451.438045 211.435067 435.97325 207.671756 422.748239 200.149091 C 409.51927 192.582897 399.341314 181.870716 392.214371 168.012551 C 385.08347 154.150428 381.521977 137.89419 381.521977 119.23988 C 381.521977 100.58557 385.123042 84.250188 392.333087 70.229777 C 399.578747 56.17375 409.796275 45.303281 422.985672 37.618371 C 436.210683 29.897845 451.600291 26.035603 469.142623 26.035603 C 486.487095 26.035603 501.714457 29.897845 514.824709 37.618371 C 527.970577 45.303281 538.148533 56.17375 545.358578 70.229777 C 552.604238 84.250188 556.229046 100.58557 556.229046 119.23988 C 556.229046 137.735901 552.64381 153.952567 545.477294 167.893834 C 538.350351 181.831144 528.211967 192.582897 515.062142 200.149091 C 501.95189 207.671756 486.645384 211.435067 469.142623 211.435067 Z M 469.142623 173.477464 C 476.269567 173.477464 481.932341 171.732333 486.130946 168.249984 C 490.369123 164.763678 493.459708 159.140475 495.398743 151.37642 C 497.337778 143.57675 498.311253 133.102003 498.311253 119.952179 C 498.311253 99.833699 496.031897 85.39778 491.477143 76.648379 C 486.961961 67.89502 479.51844 63.51834 469.142623 63.51834 C 458.568946 63.51834 450.963179 67.89502 446.329281 76.648379 C 441.738912 85.39778 439.43977 99.833699 439.43977 119.952179 C 439.43977 133.102003 440.409288 143.57675 442.35228 151.37642 C 444.291315 159.140475 447.401686 164.763678 451.679435 168.249984 C 455.992799 171.732333 461.817819 173.477464 469.142623 173.477464 Z M 656.192246 211.435067 C 639.32264 211.435067 624.431641 207.55304 611.523207 199.792942 C 598.650388 191.989314 588.690078 181.158418 581.642279 167.296295 C 574.590522 153.398557 571.068601 137.458896 571.068601 119.477313 C 571.068601 100.981292 574.788383 84.685482 582.235861 70.589883 C 589.718954 56.450755 600.154129 45.501142 613.541386 37.737087 C 626.928644 29.937417 642.215364 26.035603 659.401547 26.035603 C 673.342814 26.035603 685.776383 28.588007 696.70621 33.696771 C 707.675609 38.805535 716.527898 45.421998 723.263077 53.538245 C 729.994299 61.618877 734.410551 70.20999 736.507875 79.319499 C 736.98274 81.262491 737.220173 82.805805 737.220173 83.953397 C 737.220173 85.417566 736.903596 86.391041 736.270442 86.865907 C 735.637287 87.340773 734.588625 87.65735 733.120499 87.815638 L 691.478729 94.170925 C 689.697982 94.170925 688.570176 93.854348 688.09531 93.221194 C 687.620445 92.548467 687.121836 91.242586 686.607398 89.299594 C 685.341089 81.816501 682.309863 75.698647 677.521633 70.946032 C 672.729446 66.153845 666.271272 63.755773 658.155024 63.755773 C 648.610223 63.755773 641.360605 67.855448 636.41013 76.054797 C 631.459654 84.210616 628.986395 98.191455 628.986395 117.993357 C 628.986395 138.744991 631.661472 153.18091 637.007669 161.297157 C 642.353866 169.417362 650.054606 173.477464 660.113846 173.477464 C 673.26367 173.477464 682.013072 167.794904 686.369965 156.425826 L 687.141622 154.229572 L 687.620445 152.330109 C 687.620445 150.861982 686.726114 150.129898 684.945368 150.129898 L 662.076624 150.129898 C 660.29192 150.129898 659.025612 149.734176 658.273741 148.942733 C 657.561442 148.111718 657.205293 146.722736 657.205293 144.783701 L 657.205293 121.376776 C 657.205293 118.646298 658.906895 117.281059 662.314057 117.281059 L 730.449379 117.755925 C 733.338146 117.755925 735.597715 118.448437 737.220173 119.833462 C 738.846588 121.218487 739.657817 123.042763 739.657817 125.298376 L 739.657817 204.842348 C 739.657817 205.98994 739.24231 206.979243 738.407338 207.810259 C 737.615895 208.605659 736.666163 209.00138 735.558143 209.00138 L 726.290346 209.00138 C 723.362008 209.00138 720.766075 207.454109 718.510462 204.367482 L 708.7678 190.287712 C 708.609511 189.773274 708.292934 189.516055 707.814111 189.516055 C 707.497534 189.516055 706.923738 189.931563 706.092723 190.762578 C 701.894118 194.802894 697.877545 198.210056 694.03509 200.980106 C 690.232206 203.714541 685.163014 206.148228 678.827514 208.289082 C 672.531585 210.386405 664.985177 211.435067 656.192246 211.435067 Z M 656.192246 211.435067 " stroke="#ffffff" stroke-width="9.1248" stroke-opacity="1" stroke-miterlimit="4"/><g fill="#ffffff" fill-opacity="1"><g transform="translate(665.37406, 374.788044)"><g><path d="M 53.34375 -151.640625 C 55.789062 -151.640625 57.015625 -150.207031 57.015625 -147.34375 L 57.015625 -5.921875 C 57.015625 -3.742188 56.46875 -2.210938 55.375 -1.328125 C 54.289062 -0.441406 52.585938 0 50.265625 0 L 16.140625 0 C 14.097656 0 12.664062 -0.40625 11.84375 -1.21875 C 11.03125 -2.039062 10.625 -3.335938 10.625 -5.109375 L 10.625 -146.9375 C 10.625 -148.4375 10.960938 -149.59375 11.640625 -150.40625 C 12.328125 -151.226562 13.285156 -151.640625 14.515625 -151.640625 Z M 53.34375 -151.640625 "/></g></g></g><g fill="#ffffff" fill-opacity="1"><g transform="translate(733.01371, 374.788044)"><g><path d="M 77.65625 2.046875 C 63.488281 2.046875 50.988281 -1.222656 40.15625 -7.765625 C 29.320312 -14.304688 20.941406 -23.398438 15.015625 -35.046875 C 9.085938 -46.691406 6.125 -60.078125 6.125 -75.203125 C 6.125 -90.734375 9.257812 -104.425781 15.53125 -116.28125 C 21.800781 -128.132812 30.554688 -137.328125 41.796875 -143.859375 C 53.035156 -150.398438 65.875 -153.671875 80.3125 -153.671875 C 92.03125 -153.671875 102.488281 -151.523438 111.6875 -147.234375 C 120.882812 -142.941406 128.304688 -137.390625 133.953125 -130.578125 C 139.609375 -123.773438 143.320312 -116.554688 145.09375 -108.921875 C 145.5 -107.285156 145.703125 -105.992188 145.703125 -105.046875 C 145.703125 -103.816406 145.429688 -102.992188 144.890625 -102.578125 C 144.347656 -102.171875 143.460938 -101.898438 142.234375 -101.765625 L 107.28125 -96.453125 C 105.789062 -96.453125 104.835938 -96.722656 104.421875 -97.265625 C 104.015625 -97.816406 103.609375 -98.910156 103.203125 -100.546875 C 102.109375 -106.804688 99.550781 -111.945312 95.53125 -115.96875 C 91.519531 -119.988281 86.109375 -122 79.296875 -122 C 71.253906 -122 65.15625 -118.554688 61 -111.671875 C 56.84375 -104.796875 54.765625 -93.050781 54.765625 -76.4375 C 54.765625 -58.988281 57.007812 -46.859375 61.5 -40.046875 C 66 -33.242188 72.472656 -29.84375 80.921875 -29.84375 C 91.960938 -29.84375 99.320312 -34.609375 103 -44.140625 L 103.609375 -45.984375 L 104.015625 -47.609375 C 104.015625 -48.835938 103.265625 -49.453125 101.765625 -49.453125 L 82.5625 -49.453125 C 81.0625 -49.453125 80.003906 -49.789062 79.390625 -50.46875 C 78.773438 -51.15625 78.46875 -52.316406 78.46875 -53.953125 L 78.46875 -73.5625 C 78.46875 -75.882812 79.898438 -77.046875 82.765625 -77.046875 L 139.984375 -76.640625 C 142.441406 -76.640625 144.347656 -76.054688 145.703125 -74.890625 C 147.066406 -73.734375 147.75 -72.203125 147.75 -70.296875 L 147.75 -3.46875 C 147.75 -2.519531 147.40625 -1.703125 146.71875 -1.015625 C 146.039062 -0.335938 145.226562 0 144.28125 0 L 136.515625 0 C 134.054688 0 131.875 -1.296875 129.96875 -3.890625 L 121.796875 -15.734375 C 121.660156 -16.140625 121.390625 -16.34375 120.984375 -16.34375 C 120.710938 -16.34375 120.234375 -16.003906 119.546875 -15.328125 C 116.003906 -11.921875 112.628906 -9.054688 109.421875 -6.734375 C 106.222656 -4.421875 101.96875 -2.378906 96.65625 -0.609375 C 91.34375 1.160156 85.007812 2.046875 77.65625 2.046875 Z M 77.65625 2.046875 "/></g></g></g><g fill="#ffffff" fill-opacity="1"><g transform="translate(888.523583, 374.788044)"><g><path d="M 141.828125 -151.640625 C 143.867188 -151.640625 144.890625 -150.476562 144.890625 -148.15625 L 144.890625 -3.671875 C 144.890625 -2.585938 144.445312 -1.703125 143.5625 -1.015625 C 142.675781 -0.335938 141.550781 0 140.1875 0 L 112.1875 0 C 110.96875 0 109.984375 -0.203125 109.234375 -0.609375 C 108.484375 -1.015625 107.628906 -1.832031 106.671875 -3.0625 L 50.484375 -79.296875 C 49.929688 -79.972656 49.453125 -80.242188 49.046875 -80.109375 C 48.640625 -79.972656 48.4375 -79.5625 48.4375 -78.875 L 48.4375 -4.5 C 48.570312 -2.863281 48.265625 -1.703125 47.515625 -1.015625 C 46.765625 -0.335938 45.4375 0 43.53125 0 L 15.734375 0 C 12.328125 0 10.625 -1.363281 10.625 -4.09375 L 10.625 -146.9375 C 10.625 -150.070312 12.125 -151.640625 15.125 -151.640625 L 48.4375 -151.640625 C 50.207031 -151.640625 51.535156 -151.398438 52.421875 -150.921875 C 53.304688 -150.441406 54.289062 -149.453125 55.375 -147.953125 L 104.421875 -79.703125 C 105.242188 -78.472656 105.992188 -77.859375 106.671875 -77.859375 C 107.359375 -77.859375 107.703125 -78.742188 107.703125 -80.515625 L 107.703125 -147.34375 C 107.703125 -150.207031 109.195312 -151.640625 112.1875 -151.640625 Z M 141.828125 -151.640625 "/></g></g></g><g fill="#ffffff" fill-opacity="1"><g transform="translate(1044.033441, 374.788044)"><g><path d="M 53.34375 -151.640625 C 55.789062 -151.640625 57.015625 -150.207031 57.015625 -147.34375 L 57.015625 -5.921875 C 57.015625 -3.742188 56.46875 -2.210938 55.375 -1.328125 C 54.289062 -0.441406 52.585938 0 50.265625 0 L 16.140625 0 C 14.097656 0 12.664062 -0.40625 11.84375 -1.21875 C 11.03125 -2.039062 10.625 -3.335938 10.625 -5.109375 L 10.625 -146.9375 C 10.625 -148.4375 10.960938 -149.59375 11.640625 -150.40625 C 12.328125 -151.226562 13.285156 -151.640625 14.515625 -151.640625 Z M 53.34375 -151.640625 "/></g></g></g><g fill="#ffffff" fill-opacity="1"><g transform="translate(1111.673106, 374.788044)"><g><path d="M 5.71875 -146.9375 C 5.71875 -148.300781 6.160156 -149.425781 7.046875 -150.3125 C 7.929688 -151.195312 9.191406 -151.640625 10.828125 -151.640625 L 133.03125 -151.640625 C 134.664062 -151.640625 135.925781 -151.195312 136.8125 -150.3125 C 137.695312 -149.425781 138.140625 -148.300781 138.140625 -146.9375 L 138.140625 -122.609375 C 138.140625 -120.023438 136.644531 -118.734375 133.65625 -118.734375 L 97.484375 -118.734375 C 95.847656 -118.734375 95.03125 -118.050781 95.03125 -116.6875 L 95.03125 -4.5 C 95.03125 -3 94.6875 -1.875 94 -1.125 C 93.320312 -0.375 92.367188 0 91.140625 0 L 52.3125 0 C 49.863281 0 48.640625 -1.363281 48.640625 -4.09375 L 48.640625 -115.875 C 48.640625 -117.78125 47.890625 -118.734375 46.390625 -118.734375 L 10.421875 -118.734375 C 7.285156 -118.734375 5.71875 -120.023438 5.71875 -122.609375 Z M 5.71875 -146.9375 "/></g></g></g><g fill="#ffffff" fill-opacity="1"><g transform="translate(1255.535098, 374.788044)"><g><path d="M 10.625 -146.9375 C 10.625 -150.070312 11.921875 -151.640625 14.515625 -151.640625 L 124.859375 -151.640625 C 127.316406 -151.640625 128.546875 -150.207031 128.546875 -147.34375 L 128.34375 -123.640625 C 128.34375 -119.960938 126.570312 -118.125 123.03125 -118.125 L 61.71875 -118.125 C 58.582031 -118.125 57.015625 -116.828125 57.015625 -114.234375 L 57.015625 -96.859375 C 57.015625 -95.503906 57.351562 -94.453125 58.03125 -93.703125 C 58.71875 -92.953125 59.601562 -92.578125 60.6875 -92.578125 L 97.484375 -92.578125 C 100.335938 -92.578125 101.765625 -91.210938 101.765625 -88.484375 L 101.765625 -63.140625 C 101.765625 -60.828125 100.539062 -59.671875 98.09375 -59.671875 L 60.28125 -59.671875 C 59.332031 -59.671875 58.550781 -59.394531 57.9375 -58.84375 C 57.320312 -58.300781 57.015625 -57.625 57.015625 -56.8125 L 57.015625 -36.375 C 57.015625 -35.28125 57.179688 -34.53125 57.515625 -34.125 C 57.859375 -33.71875 58.507812 -33.515625 59.46875 -33.515625 L 125.890625 -33.515625 C 128.878906 -33.515625 130.375 -32.21875 130.375 -29.625 L 130.375 -4.5 C 130.375 -3.132812 129.960938 -2.039062 129.140625 -1.21875 C 128.328125 -0.40625 127.109375 0 125.484375 0 L 16.140625 0 C 14.097656 0 12.664062 -0.40625 11.84375 -1.21875 C 11.03125 -2.039062 10.625 -3.335938 10.625 -5.109375 Z M 10.625 -146.9375 "/></g></g></g></svg>