<svg xmlns="http://www.w3.org/2000/svg" xmlns:xlink="http://www.w3.org/1999/xlink" width="1920" zoomAndPan="magnify" viewBox="0 0 1440 809.999993" height="1080" preserveAspectRatio="xMidYMid meet" version="1.0"><defs><g/><clipPath id="be7d3c488a"><path d="M 63 149.246094 L 533 149.246094 L 533 594 L 63 594 Z M 63 149.246094 " clip-rule="nonzero"/></clipPath><clipPath id="f197f07b37"><path d="M 25.351562 349 L 321 349 L 321 630 L 25.351562 630 Z M 25.351562 349 " clip-rule="nonzero"/></clipPath></defs><g clip-path="url(#be7d3c488a)"><path fill="#00b37e" d="M 531.976562 152.496094 L 407.992188 591.78125 C 407.363281 593.773438 404.839844 594.375 403.367188 592.976562 L 320.363281 514.214844 L 382.566406 294.074219 C 383.195312 292.078125 381.304688 290.285156 379.203125 290.882812 L 147.203125 349.90625 L 64.613281 271.539062 C 63.144531 270.144531 63.773438 267.75 65.875 267.152344 L 528.617188 149.304688 C 530.71875 148.90625 532.609375 150.703125 531.976562 152.496094 Z M 531.976562 152.496094 " fill-opacity="0.498" fill-rule="nonzero"/></g><g clip-path="url(#f197f07b37)"><path fill="#00b37e" d="M 320.355469 514.210938 L 288.414062 627.867188 C 287.785156 629.863281 285.261719 630.460938 283.792969 629.066406 L 26.152344 384.796875 C 24.683594 383.402344 25.3125 381.007812 27.414062 380.410156 L 147.199219 349.902344 Z M 320.355469 514.210938 " fill-opacity="0.498" fill-rule="nonzero"/></g><path fill="#00b37e" d="M 382.554688 294.070312 L 320.351562 514.210938 L 147.191406 349.902344 L 379.191406 290.878906 C 381.292969 290.28125 383.183594 292.074219 382.554688 294.070312 Z M 382.554688 294.070312 " fill-opacity="1" fill-rule="nonzero"/><path stroke-linecap="butt" transform="matrix(0.987121, 0, 0, 0.987121, 638.12599, 396.862207)" fill="none" stroke-linejoin="miter" d="M 69.839878 34.05292 C 69.839878 32.272174 70.2356 30.906935 71.027043 29.957203 C 71.862015 28.963942 73.009607 28.46929 74.473777 28.46929 L 204.155658 28.46929 C 207.083997 28.46929 208.548167 30.17485 208.548167 33.578054 L 208.310734 61.796952 C 208.310734 66.193418 206.272768 68.389672 202.19288 68.389672 L 130.670182 68.389672 C 126.946443 68.389672 125.086552 69.913199 125.086552 72.964212 L 125.086552 95.832955 C 125.086552 99.081829 126.550722 100.704287 129.483018 100.704287 L 173.977939 100.704287 C 177.222855 100.704287 178.849271 102.330702 178.849271 105.575618 L 178.849271 135.278471 C 178.849271 138.052479 177.381144 139.437504 174.452805 139.437504 L 128.948794 139.437504 C 127.840774 139.437504 126.906871 139.754081 126.155 140.387235 C 125.442702 141.02039 125.086552 141.910763 125.086552 143.062312 L 125.086552 201.929838 C 125.086552 204.545556 124.433612 206.385661 123.127731 207.454109 C 121.817893 208.486942 119.799714 209.00138 117.065278 209.00138 L 76.432598 209.00138 C 73.979125 209.00138 72.257737 208.526514 71.264476 207.572826 C 70.314744 206.583522 69.839878 205.040208 69.839878 202.938927 Z M 227.993919 34.05292 C 227.993919 30.333138 229.537233 28.46929 232.627818 28.46929 L 364.031088 28.46929 C 366.919854 28.46929 368.364238 30.17485 368.364238 33.578054 L 368.126805 61.796952 C 368.126805 66.193418 366.029481 68.389672 361.830876 68.389672 L 288.824223 68.389672 C 285.100484 68.389672 283.240593 69.913199 283.240593 72.964212 L 283.240593 93.636701 C 283.240593 95.259159 283.636315 96.529425 284.427758 97.439585 C 285.258773 98.349744 286.327221 98.804824 287.637059 98.804824 L 331.415725 98.804824 C 334.822886 98.804824 336.524489 100.407496 336.524489 103.616797 L 336.524489 133.794516 C 336.524489 136.564566 335.060319 137.953548 332.128023 137.953548 L 287.102835 137.953548 C 285.990857 137.953548 285.060912 138.289911 284.309041 138.962638 C 283.596743 139.595792 283.240593 140.387235 283.240593 141.336967 L 283.240593 165.693623 C 283.240593 166.999504 283.438454 167.893834 283.834175 168.3687 C 284.229897 168.843566 285.001554 169.080999 286.149146 169.080999 L 365.218252 169.080999 C 368.783703 169.080999 370.564449 170.624312 370.564449 173.714897 L 370.564449 203.655183 C 370.564449 205.277641 370.069797 206.583522 369.080494 207.572826 C 368.126805 208.526514 366.682422 209.00138 364.743386 209.00138 L 234.586639 209.00138 C 232.133166 209.00138 230.40782 208.526514 229.418517 207.572826 C 228.468785 206.583522 227.993919 205.040208 227.993919 202.938927 Z M 391.256725 34.05292 C 391.256725 30.333138 392.800038 28.46929 395.890623 28.46929 L 527.293893 28.46929 C 530.18266 28.46929 531.627043 30.17485 531.627043 33.578054 L 531.38961 61.796952 C 531.38961 66.193418 529.292286 68.389672 525.093682 68.389672 L 452.087028 68.389672 C 448.363289 68.389672 446.503398 69.913199 446.503398 72.964212 L 446.503398 93.636701 C 446.503398 95.259159 446.89912 96.529425 447.690563 97.439585 C 448.521578 98.349744 449.590026 98.804824 450.899864 98.804824 L 494.67853 98.804824 C 498.085691 98.804824 499.787294 100.407496 499.787294 103.616797 L 499.787294 133.794516 C 499.787294 136.564566 498.323124 137.953548 495.390828 137.953548 L 450.36564 137.953548 C 449.253663 137.953548 448.323717 138.289911 447.571846 138.962638 C 446.859548 139.595792 446.503398 140.387235 446.503398 141.336967 L 446.503398 165.693623 C 446.503398 166.999504 446.701259 167.893834 447.096981 168.3687 C 447.492702 168.843566 448.264359 169.080999 449.411951 169.080999 L 528.481057 169.080999 C 532.046508 169.080999 533.827254 170.624312 533.827254 173.714897 L 533.827254 203.655183 C 533.827254 205.277641 533.332602 206.583522 532.343299 207.572826 C 531.38961 208.526514 529.945227 209.00138 528.006192 209.00138 L 397.849444 209.00138 C 395.395971 209.00138 393.670626 208.526514 392.681322 207.572826 C 391.73159 206.583522 391.256725 205.040208 391.256725 202.938927 Z M 589.806013 28.46929 C 609.093477 28.46929 621.091752 28.548435 625.804795 28.706723 C 657.446683 29.858273 681.368046 38.409813 697.564925 54.36926 C 713.801377 70.328707 721.921581 91.618522 721.921581 118.23079 C 721.921581 136.0897 718.257201 151.8315 710.932396 165.45619 C 703.643207 179.08088 692.772738 189.753488 678.317033 197.474014 C 663.9009 205.158925 646.318995 209.00138 625.567362 209.00138 L 561.587115 209.00138 C 559.133642 209.00138 557.329152 208.44737 556.18156 207.335393 C 555.07354 206.187801 554.51953 204.308124 554.51953 201.692405 L 554.51953 34.527786 C 554.51953 32.272174 554.994395 30.709074 555.944127 29.838487 C 556.933431 28.92437 558.658776 28.46929 561.112249 28.46929 Z M 612.199891 66.668283 C 611.368875 66.668283 610.755507 66.905716 610.359786 67.380582 C 609.964064 67.855448 609.766204 68.745821 609.766204 70.051702 L 609.766204 167.11822 C 609.766204 168.586347 610.003636 169.575651 610.478502 170.090088 C 610.953368 170.564954 611.843741 170.802387 613.149622 170.802387 L 614.874968 170.802387 C 630.913559 170.802387 643.109694 166.623568 651.467332 158.269888 C 659.824969 149.912251 663.99983 136.327133 663.99983 117.518492 C 663.99983 101.28204 660.834059 89.200664 654.498558 81.282277 C 648.198672 73.320361 638.970448 68.765607 626.813884 67.618015 Z M 612.199891 66.668283 " stroke="#ffffff" stroke-width="9.1248" stroke-opacity="1" stroke-miterlimit="4"/><g fill="#ffffff" fill-opacity="1"><g transform="translate(665.37406, 374.788044)"><g><path d="M 53.34375 -151.640625 C 55.789062 -151.640625 57.015625 -150.207031 57.015625 -147.34375 L 57.015625 -5.921875 C 57.015625 -3.742188 56.46875 -2.210938 55.375 -1.328125 C 54.289062 -0.441406 52.585938 0 50.265625 0 L 16.140625 0 C 14.097656 0 12.664062 -0.40625 11.84375 -1.21875 C 11.03125 -2.039062 10.625 -3.335938 10.625 -5.109375 L 10.625 -146.9375 C 10.625 -148.4375 10.960938 -149.59375 11.640625 -150.40625 C 12.328125 -151.226562 13.285156 -151.640625 14.515625 -151.640625 Z M 53.34375 -151.640625 "/></g></g></g><g fill="#ffffff" fill-opacity="1"><g transform="translate(733.01371, 374.788044)"><g><path d="M 77.65625 2.046875 C 63.488281 2.046875 50.988281 -1.222656 40.15625 -7.765625 C 29.320312 -14.304688 20.941406 -23.398438 15.015625 -35.046875 C 9.085938 -46.691406 6.125 -60.078125 6.125 -75.203125 C 6.125 -90.734375 9.257812 -104.425781 15.53125 -116.28125 C 21.800781 -128.132812 30.554688 -137.328125 41.796875 -143.859375 C 53.035156 -150.398438 65.875 -153.671875 80.3125 -153.671875 C 92.03125 -153.671875 102.488281 -151.523438 111.6875 -147.234375 C 120.882812 -142.941406 128.304688 -137.390625 133.953125 -130.578125 C 139.609375 -123.773438 143.320312 -116.554688 145.09375 -108.921875 C 145.5 -107.285156 145.703125 -105.992188 145.703125 -105.046875 C 145.703125 -103.816406 145.429688 -102.992188 144.890625 -102.578125 C 144.347656 -102.171875 143.460938 -101.898438 142.234375 -101.765625 L 107.28125 -96.453125 C 105.789062 -96.453125 104.835938 -96.722656 104.421875 -97.265625 C 104.015625 -97.816406 103.609375 -98.910156 103.203125 -100.546875 C 102.109375 -106.804688 99.550781 -111.945312 95.53125 -115.96875 C 91.519531 -119.988281 86.109375 -122 79.296875 -122 C 71.253906 -122 65.15625 -118.554688 61 -111.671875 C 56.84375 -104.796875 54.765625 -93.050781 54.765625 -76.4375 C 54.765625 -58.988281 57.007812 -46.859375 61.5 -40.046875 C 66 -33.242188 72.472656 -29.84375 80.921875 -29.84375 C 91.960938 -29.84375 99.320312 -34.609375 103 -44.140625 L 103.609375 -45.984375 L 104.015625 -47.609375 C 104.015625 -48.835938 103.265625 -49.453125 101.765625 -49.453125 L 82.5625 -49.453125 C 81.0625 -49.453125 80.003906 -49.789062 79.390625 -50.46875 C 78.773438 -51.15625 78.46875 -52.316406 78.46875 -53.953125 L 78.46875 -73.5625 C 78.46875 -75.882812 79.898438 -77.046875 82.765625 -77.046875 L 139.984375 -76.640625 C 142.441406 -76.640625 144.347656 -76.054688 145.703125 -74.890625 C 147.066406 -73.734375 147.75 -72.203125 147.75 -70.296875 L 147.75 -3.46875 C 147.75 -2.519531 147.40625 -1.703125 146.71875 -1.015625 C 146.039062 -0.335938 145.226562 0 144.28125 0 L 136.515625 0 C 134.054688 0 131.875 -1.296875 129.96875 -3.890625 L 121.796875 -15.734375 C 121.660156 -16.140625 121.390625 -16.34375 120.984375 -16.34375 C 120.710938 -16.34375 120.234375 -16.003906 119.546875 -15.328125 C 116.003906 -11.921875 112.628906 -9.054688 109.421875 -6.734375 C 106.222656 -4.421875 101.96875 -2.378906 96.65625 -0.609375 C 91.34375 1.160156 85.007812 2.046875 77.65625 2.046875 Z M 77.65625 2.046875 "/></g></g></g><g fill="#ffffff" fill-opacity="1"><g transform="translate(888.523583, 374.788044)"><g><path d="M 141.828125 -151.640625 C 143.867188 -151.640625 144.890625 -150.476562 144.890625 -148.15625 L 144.890625 -3.671875 C 144.890625 -2.585938 144.445312 -1.703125 143.5625 -1.015625 C 142.675781 -0.335938 141.550781 0 140.1875 0 L 112.1875 0 C 110.96875 0 109.984375 -0.203125 109.234375 -0.609375 C 108.484375 -1.015625 107.628906 -1.832031 106.671875 -3.0625 L 50.484375 -79.296875 C 49.929688 -79.972656 49.453125 -80.242188 49.046875 -80.109375 C 48.640625 -79.972656 48.4375 -79.5625 48.4375 -78.875 L 48.4375 -4.5 C 48.570312 -2.863281 48.265625 -1.703125 47.515625 -1.015625 C 46.765625 -0.335938 45.4375 0 43.53125 0 L 15.734375 0 C 12.328125 0 10.625 -1.363281 10.625 -4.09375 L 10.625 -146.9375 C 10.625 -150.070312 12.125 -151.640625 15.125 -151.640625 L 48.4375 -151.640625 C 50.207031 -151.640625 51.535156 -151.398438 52.421875 -150.921875 C 53.304688 -150.441406 54.289062 -149.453125 55.375 -147.953125 L 104.421875 -79.703125 C 105.242188 -78.472656 105.992188 -77.859375 106.671875 -77.859375 C 107.359375 -77.859375 107.703125 -78.742188 107.703125 -80.515625 L 107.703125 -147.34375 C 107.703125 -150.207031 109.195312 -151.640625 112.1875 -151.640625 Z M 141.828125 -151.640625 "/></g></g></g><g fill="#ffffff" fill-opacity="1"><g transform="translate(1044.033441, 374.788044)"><g><path d="M 53.34375 -151.640625 C 55.789062 -151.640625 57.015625 -150.207031 57.015625 -147.34375 L 57.015625 -5.921875 C 57.015625 -3.742188 56.46875 -2.210938 55.375 -1.328125 C 54.289062 -0.441406 52.585938 0 50.265625 0 L 16.140625 0 C 14.097656 0 12.664062 -0.40625 11.84375 -1.21875 C 11.03125 -2.039062 10.625 -3.335938 10.625 -5.109375 L 10.625 -146.9375 C 10.625 -148.4375 10.960938 -149.59375 11.640625 -150.40625 C 12.328125 -151.226562 13.285156 -151.640625 14.515625 -151.640625 Z M 53.34375 -151.640625 "/></g></g></g><g fill="#ffffff" fill-opacity="1"><g transform="translate(1111.673106, 374.788044)"><g><path d="M 5.71875 -146.9375 C 5.71875 -148.300781 6.160156 -149.425781 7.046875 -150.3125 C 7.929688 -151.195312 9.191406 -151.640625 10.828125 -151.640625 L 133.03125 -151.640625 C 134.664062 -151.640625 135.925781 -151.195312 136.8125 -150.3125 C 137.695312 -149.425781 138.140625 -148.300781 138.140625 -146.9375 L 138.140625 -122.609375 C 138.140625 -120.023438 136.644531 -118.734375 133.65625 -118.734375 L 97.484375 -118.734375 C 95.847656 -118.734375 95.03125 -118.050781 95.03125 -116.6875 L 95.03125 -4.5 C 95.03125 -3 94.6875 -1.875 94 -1.125 C 93.320312 -0.375 92.367188 0 91.140625 0 L 52.3125 0 C 49.863281 0 48.640625 -1.363281 48.640625 -4.09375 L 48.640625 -115.875 C 48.640625 -117.78125 47.890625 -118.734375 46.390625 -118.734375 L 10.421875 -118.734375 C 7.285156 -118.734375 5.71875 -120.023438 5.71875 -122.609375 Z M 5.71875 -146.9375 "/></g></g></g><g fill="#ffffff" fill-opacity="1"><g transform="translate(1255.535098, 374.788044)"><g><path d="M 10.625 -146.9375 C 10.625 -150.070312 11.921875 -151.640625 14.515625 -151.640625 L 124.859375 -151.640625 C 127.316406 -151.640625 128.546875 -150.207031 128.546875 -147.34375 L 128.34375 -123.640625 C 128.34375 -119.960938 126.570312 -118.125 123.03125 -118.125 L 61.71875 -118.125 C 58.582031 -118.125 57.015625 -116.828125 57.015625 -114.234375 L 57.015625 -96.859375 C 57.015625 -95.503906 57.351562 -94.453125 58.03125 -93.703125 C 58.71875 -92.953125 59.601562 -92.578125 60.6875 -92.578125 L 97.484375 -92.578125 C 100.335938 -92.578125 101.765625 -91.210938 101.765625 -88.484375 L 101.765625 -63.140625 C 101.765625 -60.828125 100.539062 -59.671875 98.09375 -59.671875 L 60.28125 -59.671875 C 59.332031 -59.671875 58.550781 -59.394531 57.9375 -58.84375 C 57.320312 -58.300781 57.015625 -57.625 57.015625 -56.8125 L 57.015625 -36.375 C 57.015625 -35.28125 57.179688 -34.53125 57.515625 -34.125 C 57.859375 -33.71875 58.507812 -33.515625 59.46875 -33.515625 L 125.890625 -33.515625 C 128.878906 -33.515625 130.375 -32.21875 130.375 -29.625 L 130.375 -4.5 C 130.375 -3.132812 129.960938 -2.039062 129.140625 -1.21875 C 128.328125 -0.40625 127.109375 0 125.484375 0 L 16.140625 0 C 14.097656 0 12.664062 -0.40625 11.84375 -1.21875 C 11.03125 -2.039062 10.625 -3.335938 10.625 -5.109375 Z M 10.625 -146.9375 "/></g></g></g></svg>